<svg width="69" height="63" viewBox="0 0 69 63" fill="none" xmlns="http://www.w3.org/2000/svg">
<path d="M33.8711 40.5332C33.8711 43.1699 33.5195 44.9922 32.8164 46H13.6387C12.7129 46 12.0742 45.7656 11.7227 45.2969C11.6055 45.1328 11.5469 44.9512 11.5469 44.752C11.5469 44.3066 11.6406 43.9668 11.8281 43.7324C12.2266 43.8496 12.748 43.9082 13.3926 43.9082C14.834 43.9082 15.5547 43.0234 15.5547 41.2539V23.2012C15.5547 22.3926 15.2148 21.8477 14.5352 21.5664C14.3359 21.4727 14.0898 21.3848 13.7969 21.3027L12.918 21.0742C12.3555 20.9336 12.0039 20.7637 11.8633 20.5645C11.7344 20.3535 11.6699 20.1426 11.6699 19.9316C11.6699 19.4863 11.7637 19.1465 11.9512 18.9121C12.2207 19.0059 12.8008 19.0527 13.6914 19.0527H21.3555C21.9648 19.0527 22.4512 19.1523 22.8145 19.3516C23.1777 19.5391 23.3594 19.8906 23.3594 20.4062C23.3594 20.8047 23.2715 21.1035 23.0957 21.3027C22.6504 21.1855 22.2227 21.127 21.8125 21.127C21.4141 21.127 21.0977 21.1738 20.8633 21.2676C20.6406 21.3496 20.4414 21.4961 20.2656 21.707C19.9141 22.1523 19.7266 22.8848 19.7031 23.9043V41.6758C19.7266 42.4961 19.9668 43.0469 20.4238 43.3281C20.8105 43.5742 21.5195 43.6973 22.5508 43.6973L23.8691 43.6797L25.3809 43.6621C27.9355 43.6621 29.6055 43.0938 30.3906 41.957C30.7773 41.3945 31.0352 40.6914 31.1641 39.8477C31.3047 38.9922 31.4277 38.002 31.5332 36.877C31.7207 36.7598 31.9727 36.7012 32.2891 36.7012C32.8867 36.7012 33.291 36.7715 33.502 36.9121C33.748 37.873 33.8711 39.0801 33.8711 40.5332ZM52.2754 26.4707C52.2754 23.7871 51.3203 22.1055 49.4102 21.4258C48.7539 21.1914 47.9863 21.0742 47.1074 21.0742C46.2285 21.0742 45.4727 21.1738 44.8398 21.373C44.207 21.5723 43.6797 21.8418 43.2578 22.1816C42.4023 22.873 41.9746 23.7871 41.9746 24.9238C41.9746 26.6465 43.2402 28.1172 45.7715 29.3359L47.9688 30.373C49.0352 30.8652 50.0605 31.3691 51.0449 31.8848C52.041 32.3887 52.9199 32.9688 53.6816 33.625C55.3574 35.0547 56.1953 36.8242 56.1953 38.9336C56.1953 41.1953 55.2109 43.0176 53.2422 44.4004C51.4023 45.6895 49.0938 46.334 46.3164 46.334C44.1133 46.334 42.168 45.9883 40.4805 45.2969C39.2383 44.8047 38.3535 44.1074 37.8262 43.2051C37.5566 42.748 37.4219 42.1914 37.4219 41.5352C37.4219 40.2227 37.75 38.998 38.4062 37.8613C38.6289 37.5918 38.9336 37.457 39.3203 37.457C40.0703 37.457 40.5039 37.6797 40.6211 38.125C40.7734 40.1523 41.3945 41.6289 42.4844 42.5547C43.5859 43.4805 45.1211 43.9434 47.0898 43.9434C49.3516 43.9434 50.8691 43.2051 51.6426 41.7285C51.9121 41.2129 52.0469 40.6094 52.0469 39.918C52.0469 39.2148 51.8594 38.5879 51.4844 38.0371C51.1094 37.4863 50.6113 36.9766 49.9902 36.5078C49.041 35.8047 47.7812 35.125 46.2109 34.4688C44.6523 33.8125 43.4336 33.2383 42.5547 32.7461C41.6875 32.2539 40.9199 31.6797 40.252 31.0234C38.7988 29.5938 38.0723 27.8301 38.0723 25.7324C38.0723 23.5879 38.9922 21.8711 40.832 20.582C42.6016 19.3398 44.8867 18.7188 47.6875 18.7188C51.2383 18.7188 53.5586 19.4512 54.6484 20.916C55.0469 21.4434 55.2461 22.1348 55.2461 22.9902C55.2461 23.8457 55.1641 24.5898 55 25.2227C54.8477 25.8555 54.6953 26.2656 54.543 26.4531C54.2852 26.7695 53.8398 26.9277 53.207 26.9277C52.5859 26.9277 52.2754 26.7754 52.2754 26.4707Z" fill="white"/>
</svg>
